<svg width="25" height="24" viewBox="0 0 25 24" fill="none" xmlns="http://www.w3.org/2000/svg">
<path fill-rule="evenodd" clip-rule="evenodd" d="M5.33337 13H17.1984L13.5654 17.36C13.2114 17.784 13.2694 18.415 13.6934 18.768C14.1184 19.122 14.7484 19.064 15.1024 18.64L20.1024 12.64C20.1414 12.593 20.1604 12.538 20.1894 12.486C20.2134 12.444 20.2424 12.408 20.2604 12.362C20.3054 12.247 20.3324 12.126 20.3324 12.004C20.3324 12.003 20.3334 12.001 20.3334 12C20.3334 11.999 20.3324 11.997 20.3324 11.996C20.3324 11.874 20.3054 11.753 20.2604 11.638C20.2424 11.592 20.2134 11.556 20.1894 11.514C20.1604 11.462 20.1414 11.407 20.1024 11.36L15.1024 5.36C14.9034 5.123 14.6194 5 14.3334 5C14.1074 5 13.8804 5.076 13.6934 5.232C13.2694 5.585 13.2114 6.216 13.5654 6.64L17.1984 11H5.33337C4.78137 11 4.33337 11.448 4.33337 12C4.33337 12.552 4.78137 13 5.33337 13Z" fill="#25A59E"/>
<mask id="mask0_73_2668" style="mask-type:luminance" maskUnits="userSpaceOnUse" x="4" y="5" width="17" height="14">
<path fill-rule="evenodd" clip-rule="evenodd" d="M5.33337 13H17.1984L13.5654 17.36C13.2114 17.784 13.2694 18.415 13.6934 18.768C14.1184 19.122 14.7484 19.064 15.1024 18.64L20.1024 12.64C20.1414 12.593 20.1604 12.538 20.1894 12.486C20.2134 12.444 20.2424 12.408 20.2604 12.362C20.3054 12.247 20.3324 12.126 20.3324 12.004C20.3324 12.003 20.3334 12.001 20.3334 12C20.3334 11.999 20.3324 11.997 20.3324 11.996C20.3324 11.874 20.3054 11.753 20.2604 11.638C20.2424 11.592 20.2134 11.556 20.1894 11.514C20.1604 11.462 20.1414 11.407 20.1024 11.36L15.1024 5.36C14.9034 5.123 14.6194 5 14.3334 5C14.1074 5 13.8804 5.076 13.6934 5.232C13.2694 5.585 13.2114 6.216 13.5654 6.64L17.1984 11H5.33337C4.78137 11 4.33337 11.448 4.33337 12C4.33337 12.552 4.78137 13 5.33337 13Z" fill="white"/>
</mask>
<g mask="url(#mask0_73_2668)">
<rect x="0.333374" width="24" height="24" fill="#25A59E"/>
</g>
</svg>
