<svg width="25" height="24" viewBox="0 0 25 24" fill="none" xmlns="http://www.w3.org/2000/svg">
<path d="M12.6598 2C17.3223 2 21.1664 5.71769 21.1666 10.3174C21.1666 12.6352 20.3236 14.7874 18.9362 16.6113C17.4055 18.6232 15.5187 20.376 13.3951 21.752C12.9091 22.0699 12.4706 22.0939 11.9371 21.752C9.80149 20.376 7.91464 18.6232 6.39709 16.6113C5.00866 14.7874 4.16663 12.6352 4.16663 10.3174C4.16683 5.71778 8.01048 2.00015 12.6598 2ZM12.6598 7.77637C11.1181 7.77652 9.86096 9.04829 9.86096 10.5771C9.86118 12.1178 11.1183 13.3299 12.6598 13.3301C14.2025 13.3301 15.4721 12.1179 15.4723 10.5771C15.4723 9.04819 14.2026 7.77637 12.6598 7.77637Z" fill="#25A59E"/>
</svg>
