<svg width="17" height="14" viewBox="0 0 17 14" fill="none" xmlns="http://www.w3.org/2000/svg">
<path fill-rule="evenodd" clip-rule="evenodd" d="M1.66675 8H13.5317L9.89875 12.36C9.54475 12.784 9.60275 13.415 10.0267 13.768C10.4517 14.122 11.0817 14.064 11.4357 13.64L16.4357 7.64C16.4747 7.593 16.4937 7.538 16.5227 7.486C16.5467 7.444 16.5757 7.408 16.5937 7.362C16.6387 7.247 16.6657 7.126 16.6657 7.004C16.6657 7.003 16.6667 7.001 16.6667 7C16.6667 6.999 16.6657 6.997 16.6657 6.996C16.6657 6.874 16.6387 6.753 16.5937 6.638C16.5757 6.592 16.5467 6.556 16.5227 6.514C16.4937 6.462 16.4747 6.407 16.4357 6.36L11.4357 0.36C11.2367 0.123 10.9527 0 10.6667 0C10.4407 0 10.2137 0.076 10.0267 0.232C9.60275 0.585 9.54475 1.216 9.89875 1.64L13.5317 6H1.66675C1.11475 6 0.666748 6.448 0.666748 7C0.666748 7.552 1.11475 8 1.66675 8Z" fill="white"/>
</svg>
